<svg width="256" height="256" viewBox="0 0 256 256" xmlns="http://www.w3.org/2000/svg">
  <!-- Background -->
  <rect width="256" height="256" fill="#2E7D32" rx="16"/>
  
  <!-- Excel-like grid -->
  <rect x="40" y="40" width="176" height="176" fill="#FFFFFF" rx="8"/>
  
  <!-- Grid lines -->
  <line x1="40" y1="80" x2="216" y2="80" stroke="#E0E0E0" stroke-width="1"/>
  <line x1="40" y1="120" x2="216" y2="120" stroke="#E0E0E0" stroke-width="1"/>
  <line x1="40" y1="160" x2="216" y2="160" stroke="#E0E0E0" stroke-width="1"/>
  <line x1="40" y1="200" x2="216" y2="200" stroke="#E0E0E0" stroke-width="1"/>
  
  <line x1="80" y1="40" x2="80" y2="216" stroke="#E0E0E0" stroke-width="1"/>
  <line x1="120" y1="40" x2="120" y2="216" stroke="#E0E0E0" stroke-width="1"/>
  <line x1="160" y1="40" x2="160" y2="216" stroke="#E0E0E0" stroke-width="1"/>
  
  <!-- Split arrow -->
  <polygon points="128,90 148,110 135,110 135,130 121,130 121,110 108,110" fill="#2E7D32"/>
  <polygon points="128,166 148,146 135,146 135,126 121,126 121,146 108,146" fill="#2E7D32"/>
  
  <!-- Title -->
  <text x="128" y="190" text-anchor="middle" fill="#2E7D32" font-family="Arial, sans-serif" font-size="18" font-weight="bold">SPLIT</text>
</svg>
